<svg width="231" height="24" viewBox="0 0 231 24" fill="none" xmlns="http://www.w3.org/2000/svg">
<path d="M10.545 12.2227H14.6466C14.5919 13.4102 14.2716 14.457 13.6856 15.3633C13.0997 16.2695 12.2872 16.9766 11.2481 17.4844C10.2169 17.9844 8.99812 18.2344 7.59187 18.2344C6.45125 18.2344 5.43172 18.043 4.53328 17.6602C3.64265 17.2773 2.88484 16.7266 2.25984 16.0078C1.64265 15.2891 1.17 14.418 0.841873 13.3945C0.521561 12.3711 0.361404 11.2188 0.361404 9.9375V9.01172C0.361404 7.73047 0.529373 6.57812 0.865311 5.55469C1.20906 4.52344 1.69344 3.64844 2.31844 2.92969C2.95125 2.20312 3.70906 1.64844 4.59187 1.26562C5.47469 0.882812 6.45515 0.691406 7.53328 0.691406C9.01765 0.691406 10.2716 0.957031 11.295 1.48828C12.3184 2.01953 13.1114 2.75 13.6739 3.67969C14.2364 4.60156 14.5684 5.65234 14.67 6.83203H10.5684C10.5528 6.19141 10.4434 5.65625 10.2403 5.22656C10.0372 4.78906 9.71687 4.46094 9.27937 4.24219C8.84187 4.02344 8.25984 3.91406 7.53328 3.91406C7.02547 3.91406 6.58406 4.00781 6.20906 4.19531C5.83406 4.38281 5.52156 4.67969 5.27156 5.08594C5.02156 5.49219 4.83406 6.01953 4.70906 6.66797C4.59187 7.30859 4.53328 8.08203 4.53328 8.98828V9.9375C4.53328 10.8438 4.58797 11.6172 4.69734 12.2578C4.80672 12.8984 4.9825 13.4219 5.22469 13.8281C5.46687 14.2344 5.77937 14.5352 6.16219 14.7305C6.55281 14.918 7.02937 15.0117 7.59187 15.0117C8.21687 15.0117 8.74422 14.9141 9.1739 14.7188C9.60359 14.5156 9.93562 14.2109 10.17 13.8047C10.4044 13.3906 10.5294 12.8633 10.545 12.2227ZM32.6287 8.46094V18H28.6795V5.32031H32.3709L32.6287 8.46094ZM36.3787 5.22656L36.3084 8.89453C36.1522 8.87891 35.9412 8.85938 35.6756 8.83594C35.41 8.8125 35.1873 8.80078 35.0077 8.80078C34.5467 8.80078 34.1483 8.85547 33.8123 8.96484C33.4842 9.06641 33.2108 9.22266 32.992 9.43359C32.7811 9.63672 32.6248 9.89453 32.5233 10.207C32.4295 10.5195 32.3866 10.8828 32.3944 11.2969L31.6795 10.8281C31.6795 9.97656 31.7616 9.20312 31.9256 8.50781C32.0975 7.80469 32.3397 7.19922 32.6522 6.69141C32.9647 6.17578 33.3436 5.78125 33.7889 5.50781C34.2342 5.22656 34.7342 5.08594 35.2889 5.08594C35.4842 5.08594 35.6756 5.09766 35.8631 5.12109C36.0584 5.14453 36.2303 5.17969 36.3787 5.22656ZM54.0797 16.5117L57.3609 5.32031H61.6031L56.5055 19.8867C56.3961 20.207 56.2516 20.5508 56.0719 20.918C55.8922 21.293 55.6461 21.6484 55.3336 21.9844C55.0211 22.3203 54.6187 22.5938 54.1266 22.8047C53.6422 23.0156 53.0406 23.1211 52.3219 23.1211C51.9391 23.1211 51.6578 23.1016 51.4781 23.0625C51.3062 23.0312 51.0406 22.9727 50.6812 22.8867V20.0625C50.7828 20.0625 50.8687 20.0625 50.9391 20.0625C51.0172 20.0625 51.1031 20.0625 51.1969 20.0625C51.6187 20.0625 51.9547 20.0195 52.2047 19.9336C52.4625 19.8477 52.6578 19.7227 52.7906 19.5586C52.9312 19.3945 53.0406 19.1953 53.1187 18.9609L54.0797 16.5117ZM53.2477 5.32031L55.7437 14.1914L56.1773 18.375H53.5289L49.0172 5.32031H53.2477ZM78.8587 7.75781V22.875H74.9095V5.32031H78.5892L78.8587 7.75781ZM86.64 11.5078V11.7539C86.64 12.6758 86.5345 13.5312 86.3236 14.3203C86.1127 15.1094 85.8002 15.7969 85.3861 16.3828C84.972 16.9688 84.4564 17.4258 83.8392 17.7539C83.2298 18.0742 82.5228 18.2344 81.7181 18.2344C80.9603 18.2344 80.308 18.0664 79.7611 17.7305C79.2142 17.3945 78.7572 16.9297 78.39 16.3359C78.0228 15.7422 77.7259 15.0625 77.4994 14.2969C77.2728 13.5312 77.0931 12.7227 76.9603 11.8711V11.5547C77.0931 10.6406 77.2728 9.79297 77.4994 9.01172C77.7259 8.22266 78.0228 7.53516 78.39 6.94922C78.7572 6.36328 79.2103 5.90625 79.7494 5.57812C80.2962 5.25 80.9486 5.08594 81.7064 5.08594C82.5111 5.08594 83.2181 5.23828 83.8275 5.54297C84.4447 5.84766 84.9603 6.28516 85.3744 6.85547C85.7962 7.41797 86.1127 8.09375 86.3236 8.88281C86.5345 9.67188 86.64 10.5469 86.64 11.5078ZM82.6908 11.7539V11.5078C82.6908 11.0156 82.6556 10.5664 82.5853 10.1602C82.515 9.74609 82.4017 9.38672 82.2455 9.08203C82.097 8.77734 81.8978 8.54297 81.6478 8.37891C81.3978 8.21484 81.0892 8.13281 80.722 8.13281C80.3002 8.13281 79.9447 8.19922 79.6556 8.33203C79.3744 8.45703 79.1478 8.65234 78.9759 8.91797C78.8119 9.17578 78.6947 9.5 78.6244 9.89062C78.5619 10.2734 78.5345 10.7227 78.5423 11.2383V12.1992C78.5267 12.793 78.5853 13.3164 78.7181 13.7695C78.8509 14.2148 79.0814 14.5625 79.4095 14.8125C79.7377 15.0625 80.183 15.1875 80.7455 15.1875C81.1205 15.1875 81.433 15.1016 81.683 14.9297C81.933 14.75 82.1322 14.5039 82.2806 14.1914C82.4291 13.8711 82.5345 13.5039 82.597 13.0898C82.6595 12.6758 82.6908 12.2305 82.6908 11.7539ZM107.317 5.32031V8.0625H99.6769V5.32031H107.317ZM101.282 2.16797H105.232V13.8633C105.232 14.1992 105.271 14.4609 105.349 14.6484C105.427 14.8281 105.56 14.957 105.747 15.0352C105.942 15.1055 106.2 15.1406 106.521 15.1406C106.747 15.1406 106.935 15.1367 107.083 15.1289C107.232 15.1133 107.372 15.0938 107.505 15.0703V17.8945C107.169 18.0039 106.817 18.0859 106.45 18.1406C106.083 18.2031 105.692 18.2344 105.278 18.2344C104.435 18.2344 103.712 18.1016 103.11 17.8359C102.517 17.5703 102.064 17.1523 101.751 16.582C101.439 16.0117 101.282 15.2695 101.282 14.3555V2.16797ZM120.284 11.7891V11.543C120.284 10.6133 120.417 9.75781 120.682 8.97656C120.948 8.1875 121.339 7.50391 121.854 6.92578C122.37 6.34766 123.007 5.89844 123.765 5.57812C124.522 5.25 125.397 5.08594 126.39 5.08594C127.39 5.08594 128.268 5.25 129.026 5.57812C129.792 5.89844 130.432 6.34766 130.948 6.92578C131.464 7.50391 131.854 8.1875 132.12 8.97656C132.386 9.75781 132.518 10.6133 132.518 11.543V11.7891C132.518 12.7109 132.386 13.5664 132.12 14.3555C131.854 15.1367 131.464 15.8203 130.948 16.4062C130.432 16.9844 129.796 17.4336 129.038 17.7539C128.28 18.0742 127.405 18.2344 126.413 18.2344C125.421 18.2344 124.542 18.0742 123.776 17.7539C123.011 17.4336 122.37 16.9844 121.854 16.4062C121.339 15.8203 120.948 15.1367 120.682 14.3555C120.417 13.5664 120.284 12.7109 120.284 11.7891ZM124.233 11.543V11.7891C124.233 12.2656 124.268 12.7109 124.339 13.125C124.409 13.5391 124.526 13.9023 124.69 14.2148C124.854 14.5195 125.077 14.7578 125.358 14.9297C125.64 15.1016 125.991 15.1875 126.413 15.1875C126.827 15.1875 127.171 15.1016 127.444 14.9297C127.725 14.7578 127.948 14.5195 128.112 14.2148C128.276 13.9023 128.393 13.5391 128.464 13.125C128.534 12.7109 128.569 12.2656 128.569 11.7891V11.543C128.569 11.082 128.534 10.6484 128.464 10.2422C128.393 9.82812 128.276 9.46484 128.112 9.15234C127.948 8.83203 127.725 8.58203 127.444 8.40234C127.163 8.22266 126.811 8.13281 126.39 8.13281C125.975 8.13281 125.628 8.22266 125.347 8.40234C125.073 8.58203 124.854 8.83203 124.69 9.15234C124.526 9.46484 124.409 9.82812 124.339 10.2422C124.268 10.6484 124.233 11.082 124.233 11.543Z" fill="#D5D1D1"/>
<path d="M150.817 0.9375V18H146.704V0.9375H150.817ZM161.001 0.9375L154.391 9.58594L150.524 13.8164L149.774 10.043L152.247 6.29297L155.926 0.9375H161.001ZM156.137 18L151.731 10.3125L154.93 7.95703L161.001 18H156.137ZM178.28 5.32031V18H174.319V5.32031H178.28ZM174.084 2.05078C174.084 1.48828 174.287 1.02734 174.694 0.667969C175.1 0.308594 175.627 0.128906 176.276 0.128906C176.924 0.128906 177.452 0.308594 177.858 0.667969C178.264 1.02734 178.467 1.48828 178.467 2.05078C178.467 2.61328 178.264 3.07422 177.858 3.43359C177.452 3.79297 176.924 3.97266 176.276 3.97266C175.627 3.97266 175.1 3.79297 174.694 3.43359C174.287 3.07422 174.084 2.61328 174.084 2.05078ZM196.836 8.02734V18H192.887V5.32031H196.59L196.836 8.02734ZM196.367 11.2266L195.442 11.25C195.442 10.2812 195.559 9.41797 195.793 8.66016C196.027 7.89453 196.36 7.24609 196.789 6.71484C197.219 6.18359 197.731 5.78125 198.324 5.50781C198.926 5.22656 199.594 5.08594 200.328 5.08594C200.914 5.08594 201.449 5.17188 201.934 5.34375C202.426 5.51562 202.848 5.79297 203.199 6.17578C203.559 6.55859 203.832 7.06641 204.02 7.69922C204.215 8.32422 204.313 9.09766 204.313 10.0195V18H200.34V10.0078C200.34 9.5 200.27 9.11328 200.129 8.84766C199.988 8.57422 199.785 8.38672 199.52 8.28516C199.254 8.18359 198.93 8.13281 198.547 8.13281C198.141 8.13281 197.797 8.21094 197.516 8.36719C197.235 8.52344 197.008 8.74219 196.836 9.02344C196.672 9.29688 196.551 9.62109 196.473 9.99609C196.402 10.3711 196.367 10.7812 196.367 11.2266ZM226.713 5.32031H230.299V17.5078C230.299 18.6797 230.029 19.6719 229.49 20.4844C228.951 21.3047 228.197 21.9258 227.228 22.3477C226.268 22.7773 225.143 22.9922 223.853 22.9922C223.283 22.9922 222.701 22.918 222.107 22.7695C221.514 22.6289 220.959 22.418 220.443 22.1367C219.928 21.8555 219.494 21.5078 219.143 21.0938L220.795 18.7734C221.115 19.1328 221.518 19.4375 222.002 19.6875C222.486 19.9453 223.057 20.0742 223.713 20.0742C224.283 20.0742 224.76 19.9727 225.143 19.7695C225.533 19.5664 225.83 19.2695 226.033 18.8789C226.236 18.4961 226.338 18.0312 226.338 17.4844V8.32031L226.713 5.32031ZM218.287 11.8125V11.5664C218.287 10.6055 218.404 9.73047 218.639 8.94141C218.881 8.14453 219.225 7.46094 219.67 6.89062C220.123 6.3125 220.67 5.86719 221.31 5.55469C221.951 5.24219 222.674 5.08594 223.478 5.08594C224.346 5.08594 225.057 5.25391 225.611 5.58984C226.174 5.91797 226.623 6.37891 226.959 6.97266C227.303 7.56641 227.568 8.26172 227.756 9.05859C227.951 9.84766 228.115 10.6992 228.248 11.6133V11.9062C228.115 12.7656 227.932 13.5781 227.697 14.3438C227.471 15.1016 227.174 15.7734 226.807 16.3594C226.439 16.9453 225.978 17.4062 225.424 17.7422C224.877 18.0703 224.221 18.2344 223.455 18.2344C222.658 18.2344 221.939 18.0742 221.299 17.7539C220.666 17.4336 220.123 16.9844 219.67 16.4062C219.225 15.8281 218.881 15.1484 218.639 14.3672C218.404 13.5859 218.287 12.7344 218.287 11.8125ZM222.236 11.5664V11.8125C222.236 12.2891 222.279 12.7305 222.365 13.1367C222.459 13.543 222.6 13.9023 222.787 14.2148C222.975 14.5195 223.205 14.7578 223.478 14.9297C223.76 15.1016 224.088 15.1875 224.463 15.1875C225.033 15.1875 225.494 15.0664 225.846 14.8242C226.197 14.582 226.451 14.2383 226.607 13.793C226.764 13.3477 226.83 12.8242 226.807 12.2227V11.2969C226.822 10.7812 226.787 10.3281 226.701 9.9375C226.615 9.53906 226.478 9.20703 226.291 8.94141C226.111 8.67578 225.869 8.47656 225.564 8.34375C225.268 8.20312 224.908 8.13281 224.486 8.13281C224.119 8.13281 223.795 8.21875 223.514 8.39062C223.232 8.5625 222.998 8.80469 222.81 9.11719C222.623 9.42188 222.478 9.78516 222.377 10.207C222.283 10.6211 222.236 11.0742 222.236 11.5664Z" fill="#B69352"/>
</svg>
