<svg width="287" height="40" viewBox="0 0 287 40" fill="none" xmlns="http://www.w3.org/2000/svg">
<rect x="6" y="26" width="28" height="4" fill="#B69352"/>
<path d="M17.7678 10.6655C18.4733 8.98916 20.8781 9.07398 21.5 10.7831V10.7831L24.0452 15.9154C24.6646 17.1645 26.34 17.4124 27.2946 16.3961L33.1841 10.1267C34.5631 8.65867 37.0022 9.91961 36.6019 11.8936L34.2687 23.3975C34.0796 24.3299 33.2599 25 32.3086 25H7.22562C6.25586 25 5.42583 24.3043 5.25638 23.3495L3.26997 12.1562C2.91492 10.1555 5.42373 8.96157 6.7524 10.499L11.7442 16.2749C12.6657 17.3412 14.3713 17.1455 15.0274 15.8983L17.7183 10.7831L17.7678 10.6655Z" fill="#B69352"/>
<circle cx="4.5" cy="8.5" r="2.5" fill="#B69352"/>
<circle cx="19.5" cy="8.5" r="2.5" fill="#B69352"/>
<circle cx="35.5" cy="8.5" r="2.5" fill="#B69352"/>
<path d="M57.545 22.2227H61.6466C61.5919 23.4102 61.2716 24.457 60.6856 25.3633C60.0997 26.2695 59.2872 26.9766 58.2481 27.4844C57.2169 27.9844 55.9981 28.2344 54.5919 28.2344C53.4512 28.2344 52.4317 28.043 51.5333 27.6602C50.6427 27.2773 49.8848 26.7266 49.2598 26.0078C48.6427 25.2891 48.17 24.418 47.8419 23.3945C47.5216 22.3711 47.3614 21.2188 47.3614 19.9375V19.0117C47.3614 17.7305 47.5294 16.5781 47.8653 15.5547C48.2091 14.5234 48.6934 13.6484 49.3184 12.9297C49.9512 12.2031 50.7091 11.6484 51.5919 11.2656C52.4747 10.8828 53.4552 10.6914 54.5333 10.6914C56.0177 10.6914 57.2716 10.957 58.295 11.4883C59.3184 12.0195 60.1114 12.75 60.6739 13.6797C61.2364 14.6016 61.5684 15.6523 61.67 16.832H57.5684C57.5528 16.1914 57.4434 15.6562 57.2403 15.2266C57.0372 14.7891 56.7169 14.4609 56.2794 14.2422C55.8419 14.0234 55.2598 13.9141 54.5333 13.9141C54.0255 13.9141 53.5841 14.0078 53.2091 14.1953C52.8341 14.3828 52.5216 14.6797 52.2716 15.0859C52.0216 15.4922 51.8341 16.0195 51.7091 16.668C51.5919 17.3086 51.5333 18.082 51.5333 18.9883V19.9375C51.5333 20.8438 51.588 21.6172 51.6973 22.2578C51.8067 22.8984 51.9825 23.4219 52.2247 23.8281C52.4669 24.2344 52.7794 24.5352 53.1622 24.7305C53.5528 24.918 54.0294 25.0117 54.5919 25.0117C55.2169 25.0117 55.7442 24.9141 56.1739 24.7188C56.6036 24.5156 56.9356 24.2109 57.17 23.8047C57.4044 23.3906 57.5294 22.8633 57.545 22.2227ZM79.6287 18.4609V28H75.6795V15.3203H79.3709L79.6287 18.4609ZM83.3787 15.2266L83.3084 18.8945C83.1522 18.8789 82.9412 18.8594 82.6756 18.8359C82.41 18.8125 82.1873 18.8008 82.0077 18.8008C81.5467 18.8008 81.1483 18.8555 80.8123 18.9648C80.4842 19.0664 80.2108 19.2227 79.992 19.4336C79.7811 19.6367 79.6248 19.8945 79.5233 20.207C79.4295 20.5195 79.3866 20.8828 79.3944 21.2969L78.6795 20.8281C78.6795 19.9766 78.7616 19.2031 78.9256 18.5078C79.0975 17.8047 79.3397 17.1992 79.6522 16.6914C79.9647 16.1758 80.3436 15.7812 80.7889 15.5078C81.2342 15.2266 81.7342 15.0859 82.2889 15.0859C82.4842 15.0859 82.6756 15.0977 82.8631 15.1211C83.0584 15.1445 83.2303 15.1797 83.3787 15.2266ZM101.08 26.5117L104.361 15.3203H108.603L103.505 29.8867C103.396 30.207 103.252 30.5508 103.072 30.918C102.892 31.293 102.646 31.6484 102.334 31.9844C102.021 32.3203 101.619 32.5938 101.127 32.8047C100.642 33.0156 100.041 33.1211 99.3219 33.1211C98.9391 33.1211 98.6578 33.1016 98.4781 33.0625C98.3062 33.0312 98.0406 32.9727 97.6812 32.8867V30.0625C97.7828 30.0625 97.8687 30.0625 97.9391 30.0625C98.0172 30.0625 98.1031 30.0625 98.1969 30.0625C98.6187 30.0625 98.9547 30.0195 99.2047 29.9336C99.4625 29.8477 99.6578 29.7227 99.7906 29.5586C99.9312 29.3945 100.041 29.1953 100.119 28.9609L101.08 26.5117ZM100.248 15.3203L102.744 24.1914L103.177 28.375H100.529L96.0172 15.3203H100.248ZM125.859 17.7578V32.875H121.91V15.3203H125.589L125.859 17.7578ZM133.64 21.5078V21.7539C133.64 22.6758 133.535 23.5312 133.324 24.3203C133.113 25.1094 132.8 25.7969 132.386 26.3828C131.972 26.9688 131.456 27.4258 130.839 27.7539C130.23 28.0742 129.523 28.2344 128.718 28.2344C127.96 28.2344 127.308 28.0664 126.761 27.7305C126.214 27.3945 125.757 26.9297 125.39 26.3359C125.023 25.7422 124.726 25.0625 124.499 24.2969C124.273 23.5312 124.093 22.7227 123.96 21.8711V21.5547C124.093 20.6406 124.273 19.793 124.499 19.0117C124.726 18.2227 125.023 17.5352 125.39 16.9492C125.757 16.3633 126.21 15.9062 126.749 15.5781C127.296 15.25 127.949 15.0859 128.706 15.0859C129.511 15.0859 130.218 15.2383 130.827 15.543C131.445 15.8477 131.96 16.2852 132.374 16.8555C132.796 17.418 133.113 18.0938 133.324 18.8828C133.535 19.6719 133.64 20.5469 133.64 21.5078ZM129.691 21.7539V21.5078C129.691 21.0156 129.656 20.5664 129.585 20.1602C129.515 19.7461 129.402 19.3867 129.245 19.082C129.097 18.7773 128.898 18.543 128.648 18.3789C128.398 18.2148 128.089 18.1328 127.722 18.1328C127.3 18.1328 126.945 18.1992 126.656 18.332C126.374 18.457 126.148 18.6523 125.976 18.918C125.812 19.1758 125.695 19.5 125.624 19.8906C125.562 20.2734 125.535 20.7227 125.542 21.2383V22.1992C125.527 22.793 125.585 23.3164 125.718 23.7695C125.851 24.2148 126.081 24.5625 126.41 24.8125C126.738 25.0625 127.183 25.1875 127.745 25.1875C128.12 25.1875 128.433 25.1016 128.683 24.9297C128.933 24.75 129.132 24.5039 129.281 24.1914C129.429 23.8711 129.535 23.5039 129.597 23.0898C129.66 22.6758 129.691 22.2305 129.691 21.7539ZM154.317 15.3203V18.0625H146.677V15.3203H154.317ZM148.282 12.168H152.232V23.8633C152.232 24.1992 152.271 24.4609 152.349 24.6484C152.427 24.8281 152.56 24.957 152.747 25.0352C152.942 25.1055 153.2 25.1406 153.521 25.1406C153.747 25.1406 153.935 25.1367 154.083 25.1289C154.232 25.1133 154.372 25.0938 154.505 25.0703V27.8945C154.169 28.0039 153.817 28.0859 153.45 28.1406C153.083 28.2031 152.692 28.2344 152.278 28.2344C151.435 28.2344 150.712 28.1016 150.11 27.8359C149.517 27.5703 149.064 27.1523 148.751 26.582C148.439 26.0117 148.282 25.2695 148.282 24.3555V12.168ZM167.284 21.7891V21.543C167.284 20.6133 167.417 19.7578 167.682 18.9766C167.948 18.1875 168.339 17.5039 168.854 16.9258C169.37 16.3477 170.007 15.8984 170.765 15.5781C171.522 15.25 172.397 15.0859 173.39 15.0859C174.39 15.0859 175.268 15.25 176.026 15.5781C176.792 15.8984 177.432 16.3477 177.948 16.9258C178.464 17.5039 178.854 18.1875 179.12 18.9766C179.386 19.7578 179.518 20.6133 179.518 21.543V21.7891C179.518 22.7109 179.386 23.5664 179.12 24.3555C178.854 25.1367 178.464 25.8203 177.948 26.4062C177.432 26.9844 176.796 27.4336 176.038 27.7539C175.28 28.0742 174.405 28.2344 173.413 28.2344C172.421 28.2344 171.542 28.0742 170.776 27.7539C170.011 27.4336 169.37 26.9844 168.854 26.4062C168.339 25.8203 167.948 25.1367 167.682 24.3555C167.417 23.5664 167.284 22.7109 167.284 21.7891ZM171.233 21.543V21.7891C171.233 22.2656 171.268 22.7109 171.339 23.125C171.409 23.5391 171.526 23.9023 171.69 24.2148C171.854 24.5195 172.077 24.7578 172.358 24.9297C172.64 25.1016 172.991 25.1875 173.413 25.1875C173.827 25.1875 174.171 25.1016 174.444 24.9297C174.725 24.7578 174.948 24.5195 175.112 24.2148C175.276 23.9023 175.393 23.5391 175.464 23.125C175.534 22.7109 175.569 22.2656 175.569 21.7891V21.543C175.569 21.082 175.534 20.6484 175.464 20.2422C175.393 19.8281 175.276 19.4648 175.112 19.1523C174.948 18.832 174.725 18.582 174.444 18.4023C174.163 18.2227 173.811 18.1328 173.39 18.1328C172.975 18.1328 172.628 18.2227 172.347 18.4023C172.073 18.582 171.854 18.832 171.69 19.1523C171.526 19.4648 171.409 19.8281 171.339 20.2422C171.268 20.6484 171.233 21.082 171.233 21.543Z" fill="#D5D1D1"/>
<path d="M197.817 10.9375V28H193.704V10.9375H197.817ZM208.001 10.9375L201.391 19.5859L197.524 23.8164L196.774 20.043L199.247 16.293L202.926 10.9375H208.001ZM203.137 28L198.731 20.3125L201.93 17.957L208.001 28H203.137ZM225.28 15.3203V28H221.319V15.3203H225.28ZM221.084 12.0508C221.084 11.4883 221.287 11.0273 221.694 10.668C222.1 10.3086 222.627 10.1289 223.276 10.1289C223.924 10.1289 224.452 10.3086 224.858 10.668C225.264 11.0273 225.467 11.4883 225.467 12.0508C225.467 12.6133 225.264 13.0742 224.858 13.4336C224.452 13.793 223.924 13.9727 223.276 13.9727C222.627 13.9727 222.1 13.793 221.694 13.4336C221.287 13.0742 221.084 12.6133 221.084 12.0508ZM243.836 18.0273V28H239.887V15.3203H243.59L243.836 18.0273ZM243.367 21.2266L242.442 21.25C242.442 20.2812 242.559 19.418 242.793 18.6602C243.027 17.8945 243.36 17.2461 243.789 16.7148C244.219 16.1836 244.731 15.7812 245.324 15.5078C245.926 15.2266 246.594 15.0859 247.328 15.0859C247.914 15.0859 248.449 15.1719 248.934 15.3438C249.426 15.5156 249.848 15.793 250.199 16.1758C250.559 16.5586 250.832 17.0664 251.02 17.6992C251.215 18.3242 251.313 19.0977 251.313 20.0195V28H247.34V20.0078C247.34 19.5 247.27 19.1133 247.129 18.8477C246.988 18.5742 246.785 18.3867 246.52 18.2852C246.254 18.1836 245.93 18.1328 245.547 18.1328C245.141 18.1328 244.797 18.2109 244.516 18.3672C244.235 18.5234 244.008 18.7422 243.836 19.0234C243.672 19.2969 243.551 19.6211 243.473 19.9961C243.402 20.3711 243.367 20.7812 243.367 21.2266ZM273.713 15.3203H277.299V27.5078C277.299 28.6797 277.029 29.6719 276.49 30.4844C275.951 31.3047 275.197 31.9258 274.228 32.3477C273.268 32.7773 272.143 32.9922 270.853 32.9922C270.283 32.9922 269.701 32.918 269.107 32.7695C268.514 32.6289 267.959 32.418 267.443 32.1367C266.928 31.8555 266.494 31.5078 266.143 31.0938L267.795 28.7734C268.115 29.1328 268.518 29.4375 269.002 29.6875C269.486 29.9453 270.057 30.0742 270.713 30.0742C271.283 30.0742 271.76 29.9727 272.143 29.7695C272.533 29.5664 272.83 29.2695 273.033 28.8789C273.236 28.4961 273.338 28.0312 273.338 27.4844V18.3203L273.713 15.3203ZM265.287 21.8125V21.5664C265.287 20.6055 265.404 19.7305 265.639 18.9414C265.881 18.1445 266.225 17.4609 266.67 16.8906C267.123 16.3125 267.67 15.8672 268.31 15.5547C268.951 15.2422 269.674 15.0859 270.478 15.0859C271.346 15.0859 272.057 15.2539 272.611 15.5898C273.174 15.918 273.623 16.3789 273.959 16.9727C274.303 17.5664 274.568 18.2617 274.756 19.0586C274.951 19.8477 275.115 20.6992 275.248 21.6133V21.9062C275.115 22.7656 274.932 23.5781 274.697 24.3438C274.471 25.1016 274.174 25.7734 273.807 26.3594C273.439 26.9453 272.978 27.4062 272.424 27.7422C271.877 28.0703 271.221 28.2344 270.455 28.2344C269.658 28.2344 268.939 28.0742 268.299 27.7539C267.666 27.4336 267.123 26.9844 266.67 26.4062C266.225 25.8281 265.881 25.1484 265.639 24.3672C265.404 23.5859 265.287 22.7344 265.287 21.8125ZM269.236 21.5664V21.8125C269.236 22.2891 269.279 22.7305 269.365 23.1367C269.459 23.543 269.6 23.9023 269.787 24.2148C269.975 24.5195 270.205 24.7578 270.478 24.9297C270.76 25.1016 271.088 25.1875 271.463 25.1875C272.033 25.1875 272.494 25.0664 272.846 24.8242C273.197 24.582 273.451 24.2383 273.607 23.793C273.764 23.3477 273.83 22.8242 273.807 22.2227V21.2969C273.822 20.7812 273.787 20.3281 273.701 19.9375C273.615 19.5391 273.478 19.207 273.291 18.9414C273.111 18.6758 272.869 18.4766 272.564 18.3438C272.268 18.2031 271.908 18.1328 271.486 18.1328C271.119 18.1328 270.795 18.2188 270.514 18.3906C270.232 18.5625 269.998 18.8047 269.81 19.1172C269.623 19.4219 269.478 19.7852 269.377 20.207C269.283 20.6211 269.236 21.0742 269.236 21.5664Z" fill="#B69352"/>
</svg>
